<?xml version="1.0" standalone="no"?>
<!DOCTYPE svg PUBLIC "-//W3C//DTD SVG 20010904//EN"
 "http://www.w3.org/TR/2001/REC-SVG-20010904/DTD/svg10.dtd">
<svg version="1.0" xmlns="http://www.w3.org/2000/svg"
 width="512.000000pt" height="512.000000pt" viewBox="0 0 512.000000 512.000000"
 preserveAspectRatio="xMidYMid meet">
<metadata>
Created by potrace 1.14, written by Peter Selinger 2001-2017
</metadata>
<g transform="translate(0.000000,512.000000) scale(0.100000,-0.100000)"
fill="#000000" stroke="none">
<path d="M0 2830 l0 -1380 720 0 720 0 0 -135 0 -135 -225 0 -225 0 0 -135 0
-135 1080 0 1080 0 0 135 0 135 -210 0 -210 0 0 135 0 135 301 0 301 0 -34 41
c-109 134 -191 286 -226 414 l-19 70 -1452 3 -1451 2 0 1040 0 1040 1925 0
1925 0 0 -385 0 -385 75 0 75 0 0 460 0 460 -2075 0 -2075 0 0 -1380z m1781
-1044 c8 -17 8 -29 0 -45 -10 -17 -21 -21 -64 -21 -57 0 -77 12 -77 45 0 33
20 45 77 45 47 0 55 -3 64 -24z m467 12 c7 -7 12 -21 12 -33 0 -41 -16 -45
-185 -45 -169 0 -185 4 -185 45 0 41 16 45 185 45 112 0 165 -4 173 -12z m250
0 c7 -7 12 -21 12 -33 0 -33 -20 -45 -77 -45 -47 0 -55 3 -64 24 -8 17 -8 29
0 45 10 17 21 21 64 21 29 0 58 -5 65 -12z"/>
<path d="M1716 3582 c-11 -13 -47 -171 -111 -492 -52 -260 -96 -474 -98 -476
-2 -2 -41 117 -88 264 -76 237 -88 269 -112 282 -48 27 -73 2 -124 -127 l-45
-112 -340 -3 c-323 -3 -340 -4 -354 -22 -18 -25 -18 -57 0 -82 14 -18 31 -19
378 -22 349 -3 365 -2 389 17 14 11 31 38 39 61 7 22 17 43 20 45 4 2 49 -127
100 -288 51 -161 100 -300 108 -309 19 -22 65 -23 86 -2 9 8 16 18 16 22 1 4
43 214 94 467 l93 460 16 -55 c9 -30 39 -138 67 -240 51 -188 62 -210 105
-210 33 0 49 24 116 170 33 74 62 136 64 138 1 2 22 -46 46 -105 60 -150 64
-153 187 -153 81 0 104 3 120 18 11 9 40 64 63 122 23 58 45 108 48 112 4 4
35 -58 71 -138 35 -80 72 -150 82 -155 26 -14 53 -11 72 10 9 10 45 120 78
245 34 124 64 226 68 226 3 0 25 -99 49 -220 39 -197 46 -223 69 -240 13 -11
40 -20 58 -20 28 0 39 8 78 60 25 33 46 62 46 65 0 3 -22 5 -49 5 -42 0 -50 3
-54 23 -3 12 -33 162 -67 332 -38 191 -68 317 -77 328 -9 9 -28 17 -43 17 -15
0 -34 -8 -42 -17 -8 -10 -48 -139 -88 -288 -40 -148 -76 -273 -79 -278 -4 -4
-31 48 -61 115 -30 67 -62 130 -72 140 -22 22 -61 23 -79 2 -8 -9 -44 -89 -80
-178 l-67 -161 -43 0 -44 0 -67 165 c-38 91 -76 171 -85 178 -24 17 -57 15
-75 -5 -8 -10 -39 -71 -68 -136 -29 -65 -56 -120 -60 -122 -3 -2 -39 121 -80
273 -45 166 -82 284 -92 294 -23 23 -60 23 -82 0z"/>
<path d="M3929 2980 c-292 -74 -515 -295 -589 -585 -28 -110 -28 -280 0 -390
118 -460 607 -717 1054 -554 44 16 90 36 102 44 13 8 27 15 31 15 5 0 76 -74
158 -165 117 -130 154 -165 171 -163 32 4 264 218 264 243 0 13 -60 86 -155
190 -85 94 -155 174 -155 178 0 4 14 35 31 68 160 317 63 736 -223 964 -78 62
-204 127 -293 151 -95 26 -302 28 -396 4z m398 -182 c377 -135 537 -581 331
-925 -71 -120 -212 -231 -348 -274 -91 -30 -244 -36 -335 -15 -223 53 -412
235 -471 456 -22 86 -23 235 -1 318 49 185 174 334 347 415 98 47 151 57 285
54 99 -3 132 -8 192 -29z"/>
</g>
</svg>
